# xmcd CD database file generated by OrangeCD 5.2
#
# Track frame offsets:
#	150
#	20470
#	46115
#	63330
#	78377
#	94937
#	107517
#	121440
#	137330
#	156075
#	169597
#	183980
#	197762
#	213915
#	225425
#	237945
#	253175
#	264100
#	281717
#	297155
#	310522
#	325435
#
# Disc length: 4567 seconds
#
# Revision: 1
# Processed by: cddbd v1.5.1PL0 Copyright (c) Steve Scherf et al.
# Submitted via: OrangeCD 5.2
#
DISCID=2711d516
DTITLE=The Dean Brothers - A Chance To Dance 3
DYEAR=1999
DGENRE=Country
TTITLE0=Poor Boy Shuffle
TTITLE1=Got To Be Funky
TTITLE2=Quando Quando
TTITLE3=Cattle Call
TTITLE4=Half Way To Paradise
TTITLE5=Let'er Rip
TTITLE6=Country Down To My Soul
TTITLE7=T-Bone Shuffle
TTITLE8=Almost Jamaica
TTITLE9=T-R-O-U-B-L-E
TTITLE10=Un Momento Alla
TTITLE11=Linda Lou
TTITLE12=Back In Your Arms
TTITLE13=Ol' Lonesome
TTITLE14=Seven Nights To Rock
TTITLE15=Tonight The Heartache's On Me
TTITLE16=We Really Shouldn't Be Doing This
TTITLE17=Walking After Midnight
TTITLE18=I Just Want To Dance With You
TTITLE19=Crazy Little Thing Called Love
TTITLE20=Shortnin' Bread
TTITLE21=Rough Around The Edges
EXTD=
EXTT0=
EXTT1=
EXTT2=
EXTT3=
EXTT4=
EXTT5=
EXTT6=
EXTT7=
EXTT8=
EXTT9=
EXTT10=
EXTT11=
EXTT12=
EXTT13=
EXTT14=
EXTT15=
EXTT16=
EXTT17=
EXTT18=
EXTT19=
EXTT20=
EXTT21=
PLAYORDER=
